<svg xmlns="http://www.w3.org/2000/svg" version="1.1" xmlns:xlink="http://www.w3.org/1999/xlink" xmlns:svgjs="http://svgjs.dev/svgjs" width="1440" height="560" preserveAspectRatio="none" viewBox="0 0 1440 560"><g mask="url(&quot;#SvgjsMask1292&quot;)" fill="none"><use xlink:href="#SvgjsG1297" transform="translate(0, 0)" fill="rgba(115, 123, 207, 1)"></use><use xlink:href="#SvgjsG1297" transform="translate(0, 528)" fill="rgba(102, 62, 187, 1)"></use><use xlink:href="#SvgjsG1297" transform="translate(528, 0)" fill="rgba(102, 62, 187, 1)"></use><use xlink:href="#SvgjsG1297" transform="translate(528, 528)" fill="rgba(115, 123, 207, 1)"></use><use xlink:href="#SvgjsG1297" transform="translate(1056, 0)" fill="rgba(115, 123, 207, 1)"></use><use xlink:href="#SvgjsG1297" transform="translate(1056, 528)" fill="rgba(102, 62, 187, 1)"></use></g><defs><mask id="SvgjsMask1292"><rect width="1440" height="560" fill="#ffffff"></rect></mask><g id="SvgjsG1294"><path d="M4.83 7.808l-1.579 1.253-2.019 1.547c-0.576 0.452-1.048-0.092-1.048-0.092-0.448-0.588 0.067-0.973 0.066-0.973l2.517-1.968s0.275-0.287 0.999-0.081l1.064 0.315m2.949-2.516c-0.79 0-1.427-0.637-1.427-1.427s0.637-1.434 1.427-1.433 1.432 0.643 1.432 1.433-0.641 1.427-1.432 1.427M4.24 13.121a0.765 0.765 0 0 0-0.765-0.765 0.764 0.764 0 0 0-0.765 0.765 0.764 0.764 0 0 0 0.765 0.765 0.764 0.764 0 0 0 0.765-0.765m7.083 0a0.765 0.765 0 0 0-0.765-0.765c-0.421 0-0.763 0.342-0.763 0.765a0.764 0.764 0 1 0 1.528 0m-8.782-1.504c-0.098-0.271-0.14-0.566-0.073-0.865a1.55 1.55 0 0 1 0.508-0.824l10.582-8.423C13.816 1.316 14.132 1.2 14.476 1.2A1.522 1.522 0 0 1 16 2.726c0 0.492-0.224 0.928-0.58 1.209-0.126 0.11-0.31 0.096-0.417-0.031a0.298 0.298 0 0 1 0.034-0.427c0.228-0.167 0.372-0.442 0.372-0.751 0-0.515-0.419-0.934-0.932-0.934-0.219 0-0.411 0.073-0.569 0.19L10.833 4.432l-1.609 4.656 0.976 2.319c0.114-0.026 0.236-0.047 0.358-0.047 0.975 0 1.764 0.79 1.763 1.761 0 0.977-0.788 1.762-1.763 1.762a1.758 1.758 0 0 1-1.76-1.762 1.744 1.744 0 0 1 0.828-1.49L8.923 9.952l-0.059 0.179c-0.214 0.659-0.926 1.019-1.584 0.8l-3.266-1.077-0.638 0.509a0.95 0.95 0 0 0-0.316 0.507c-0.043 0.19-0.012 0.373 0.051 0.537 0.114-0.022 0.24-0.047 0.364-0.048 0.971 0 1.76 0.79 1.76 1.762 0 0.978-0.789 1.762-1.76 1.762s-1.764-0.785-1.764-1.762c0.001-0.637 0.323-1.196 0.83-1.504"></path></g><g id="SvgjsG1295"><path d="M0.012 7.384c0 0.014 0.006 0.028 0.007 0.042v-0.083c-0.002 0.013-0.007 0.026-0.007 0.041z"></path><path d="M4.128 6.119a0.536 0.536 0 1 0 1.071 0 0.536 0.536 0 1 0-1.071 0"></path><path d="M10.577 8.79zM13.953 12.705c-0.71 0-1.559-0.8-2.458-1.646a78.836 78.836 0 0 0-0.298-0.28l-0.305-1.305a0.574 0.574 0 0 0-1.133 0.085c-0.896-0.654-1.903-1.144-3.098-1.144v-5.147L3.229 1.338l-3.217 1.931v11.581h0.643V13.992h2.146v0.857h0.643V13.992h2.574v0.857h0.643V9.702c1.516 0 2.755 1.166 3.953 2.294 1.091 1.026 2.12 1.996 3.339 1.996h0.215v0.857h0.643V13.992h0.643v-1.287h-1.501zM2.8 13.562H0.657v-0.857h2.144v0.857z m0-1.287H0.657v-0.858h2.144v0.858z m0-1.287H0.657v-0.858h2.144v0.858z m3.217-2.574H5.357l-0.255-1.09a0.575 0.575 0 0 0-1.121 0.262l0.194 0.829H0.657V3.697h5.361v4.718z"></path></g><g id="SvgjsG1293"><path d="M1.704 6.537a0.658 0.658 0 1 0 1.316 0 0.658 0.658 0 1 0-1.316 0"></path><path d="M11.364 4.442a0.658 0.658 0 1 0 1.316 0 0.658 0.658 0 1 0-1.316 0"></path><path d="M12.05 8.032l-0.155 0.745 0.766 0.196 0.66-1.216 2.249-0.489L15.393 6.455l-0.772 0.168c0.243-0.579-0.162-0.817-0.162-0.816L12.839 4.738l-0.651 0.464-0.632 0.965s-0.305 0.466-0.019 0.715l0.03 0.403-7.612 1.65-0.14-0.377c0.157-0.345-0.314-0.644-0.314-0.644L2.527 7.298 1.741 7.145 0.709 8.789s-0.27 0.384 0.191 0.81l-0.772 0.168 0.177 0.813 2.248-0.487 1.105 0.833 0.616-0.495-0.45-0.614 8.226-1.785z m-8.828 1.063l-0.862-0.414 0.213-0.658 0.866 0.408 0.211 0.572-0.427 0.093z m9.076-1.968l-0.428 0.093-0.044-0.608 0.619-0.73 0.467 0.511-0.614 0.734z"></path><path d="M8.651 12.262V9.644l-0.802-0.701-0.802 0.701v2.618h1.603z"></path></g><g id="SvgjsG1296"><path d="M1.811 9.858c1.002 0 1.815-0.813 1.815-1.816 0-1-0.813-1.811-1.815-1.81C0.811 6.232 0 7.042 0 8.043c0 1.002 0.811 1.815 1.811 1.815m10.166 3.116c0.084-0.057 0.196-0.041 0.258 0.042l0.335 0.463c0.057 0.08 0.038 0.196-0.041 0.258L10.068 15.525c-0.08 0.059-0.196 0.041-0.258-0.038l-0.336-0.466c-0.057-0.08-0.039-0.194 0.041-0.258L11.976 12.974zM9.193 10.668l-0.977-1.712-0.512 0.374 0.976 1.722 0.513-0.384zM6.914 6.668L3.117 0l-0.727 0.004L6.396 7.046l0.518-0.378z"></path><path d="M10.49 10.196c0.215-0.155 0.461-0.276 0.742-0.277l3.528 0.005c0.685 0 1.24 0.557 1.24 1.24a1.238 1.238 0 0 1-1.24 1.24l-2.943-0.005L8.056 15.052c-1.324 0.954-2.128-0.094-2.128-0.093L2.978 12.006c-0.493-0.594-0.388-1.722 0.205-2.219l4.083-2.909a0.966 0.966 0 0 1 1.352 0.116c0.34 0.406 0.286 1.011-0.121 1.352l-2.613 1.914L7.762 12.114l2.728-1.918z"></path></g><g id="SvgjsG1297"><use xlink:href="#SvgjsG1293" transform="translate(0, 0) scale(2.2)" fill="rgba(102, 62, 187, 1)"></use><use xlink:href="#SvgjsG1294" transform="translate(0, 52.800000000000004) scale(2.2)" fill="rgba(115, 123, 207, 1)"></use><use xlink:href="#SvgjsG1295" transform="translate(0, 105.60000000000001) scale(2.2)" fill="rgba(115, 123, 207, 1)"></use><use xlink:href="#SvgjsG1294" transform="translate(0, 158.4) scale(2.2)" fill="rgba(102, 62, 187, 1)"></use><use xlink:href="#SvgjsG1293" transform="translate(0, 211.20000000000002) scale(2.2)" fill="rgba(115, 123, 207, 1)"></use><use xlink:href="#SvgjsG1296" transform="translate(0, 264) scale(2.2)" fill="rgba(102, 62, 187, 1)"></use><use xlink:href="#SvgjsG1295" transform="translate(0, 316.8) scale(2.2)" fill="rgba(102, 62, 187, 1)"></use><use xlink:href="#SvgjsG1293" transform="translate(0, 369.6) scale(2.2)" fill="rgba(102, 62, 187, 1)"></use><use xlink:href="#SvgjsG1294" transform="translate(0, 422.40000000000003) scale(2.2)" fill="rgba(102, 62, 187, 1)"></use><use xlink:href="#SvgjsG1296" transform="translate(0, 475.20000000000005) scale(2.2)" fill="rgba(115, 123, 207, 1)"></use><use xlink:href="#SvgjsG1296" transform="translate(52.800000000000004, 0) scale(2.2)" fill="rgba(115, 123, 207, 1)"></use><use xlink:href="#SvgjsG1293" transform="translate(52.800000000000004, 52.800000000000004) scale(2.2)" fill="rgba(115, 123, 207, 1)"></use><use xlink:href="#SvgjsG1295" transform="translate(52.800000000000004, 105.60000000000001) scale(2.2)" fill="rgba(115, 123, 207, 1)"></use><use xlink:href="#SvgjsG1296" transform="translate(52.800000000000004, 158.4) scale(2.2)" fill="rgba(115, 123, 207, 1)"></use><use xlink:href="#SvgjsG1294" transform="translate(52.800000000000004, 211.20000000000002) scale(2.2)" fill="rgba(102, 62, 187, 1)"></use><use xlink:href="#SvgjsG1294" transform="translate(52.800000000000004, 264) scale(2.2)" fill="rgba(115, 123, 207, 1)"></use><use xlink:href="#SvgjsG1295" transform="translate(52.800000000000004, 316.8) scale(2.2)" fill="rgba(115, 123, 207, 1)"></use><use xlink:href="#SvgjsG1296" transform="translate(52.800000000000004, 369.6) scale(2.2)" fill="rgba(102, 62, 187, 1)"></use><use xlink:href="#SvgjsG1294" transform="translate(52.800000000000004, 422.40000000000003) scale(2.2)" fill="rgba(102, 62, 187, 1)"></use><use xlink:href="#SvgjsG1294" transform="translate(52.800000000000004, 475.20000000000005) scale(2.2)" fill="rgba(102, 62, 187, 1)"></use><use xlink:href="#SvgjsG1295" transform="translate(105.60000000000001, 0) scale(2.2)" fill="rgba(102, 62, 187, 1)"></use><use xlink:href="#SvgjsG1296" transform="translate(105.60000000000001, 52.800000000000004) scale(2.2)" fill="rgba(102, 62, 187, 1)"></use><use xlink:href="#SvgjsG1294" transform="translate(105.60000000000001, 105.60000000000001) scale(2.2)" fill="rgba(115, 123, 207, 1)"></use><use xlink:href="#SvgjsG1295" transform="translate(105.60000000000001, 158.4) scale(2.2)" fill="rgba(115, 123, 207, 1)"></use><use xlink:href="#SvgjsG1295" transform="translate(105.60000000000001, 211.20000000000002) scale(2.2)" fill="rgba(102, 62, 187, 1)"></use><use xlink:href="#SvgjsG1294" transform="translate(105.60000000000001, 264) scale(2.2)" fill="rgba(102, 62, 187, 1)"></use><use xlink:href="#SvgjsG1296" transform="translate(105.60000000000001, 316.8) scale(2.2)" fill="rgba(102, 62, 187, 1)"></use><use xlink:href="#SvgjsG1295" transform="translate(105.60000000000001, 369.6) scale(2.2)" fill="rgba(102, 62, 187, 1)"></use><use xlink:href="#SvgjsG1295" transform="translate(105.60000000000001, 422.40000000000003) scale(2.2)" fill="rgba(115, 123, 207, 1)"></use><use xlink:href="#SvgjsG1296" transform="translate(105.60000000000001, 475.20000000000005) scale(2.2)" fill="rgba(102, 62, 187, 1)"></use><use xlink:href="#SvgjsG1296" transform="translate(158.4, 0) scale(2.2)" fill="rgba(115, 123, 207, 1)"></use><use xlink:href="#SvgjsG1296" transform="translate(158.4, 52.800000000000004) scale(2.2)" fill="rgba(102, 62, 187, 1)"></use><use xlink:href="#SvgjsG1296" transform="translate(158.4, 105.60000000000001) scale(2.2)" fill="rgba(102, 62, 187, 1)"></use><use xlink:href="#SvgjsG1294" transform="translate(158.4, 158.4) scale(2.2)" fill="rgba(115, 123, 207, 1)"></use><use xlink:href="#SvgjsG1293" transform="translate(158.4, 211.20000000000002) scale(2.2)" fill="rgba(102, 62, 187, 1)"></use><use xlink:href="#SvgjsG1293" transform="translate(158.4, 264) scale(2.2)" fill="rgba(115, 123, 207, 1)"></use><use xlink:href="#SvgjsG1294" transform="translate(158.4, 316.8) scale(2.2)" fill="rgba(115, 123, 207, 1)"></use><use xlink:href="#SvgjsG1293" transform="translate(158.4, 369.6) scale(2.2)" fill="rgba(102, 62, 187, 1)"></use><use xlink:href="#SvgjsG1296" transform="translate(158.4, 422.40000000000003) scale(2.2)" fill="rgba(102, 62, 187, 1)"></use><use xlink:href="#SvgjsG1294" transform="translate(158.4, 475.20000000000005) scale(2.2)" fill="rgba(102, 62, 187, 1)"></use><use xlink:href="#SvgjsG1295" transform="translate(211.20000000000002, 0) scale(2.2)" fill="rgba(115, 123, 207, 1)"></use><use xlink:href="#SvgjsG1294" transform="translate(211.20000000000002, 52.800000000000004) scale(2.2)" fill="rgba(102, 62, 187, 1)"></use><use xlink:href="#SvgjsG1293" transform="translate(211.20000000000002, 105.60000000000001) scale(2.2)" fill="rgba(102, 62, 187, 1)"></use><use xlink:href="#SvgjsG1294" transform="translate(211.20000000000002, 158.4) scale(2.2)" fill="rgba(115, 123, 207, 1)"></use><use xlink:href="#SvgjsG1294" transform="translate(211.20000000000002, 211.20000000000002) scale(2.2)" fill="rgba(115, 123, 207, 1)"></use><use xlink:href="#SvgjsG1293" transform="translate(211.20000000000002, 264) scale(2.2)" fill="rgba(115, 123, 207, 1)"></use><use xlink:href="#SvgjsG1293" transform="translate(211.20000000000002, 316.8) scale(2.2)" fill="rgba(102, 62, 187, 1)"></use><use xlink:href="#SvgjsG1294" transform="translate(211.20000000000002, 369.6) scale(2.2)" fill="rgba(115, 123, 207, 1)"></use><use xlink:href="#SvgjsG1296" transform="translate(211.20000000000002, 422.40000000000003) scale(2.2)" fill="rgba(115, 123, 207, 1)"></use><use xlink:href="#SvgjsG1293" transform="translate(211.20000000000002, 475.20000000000005) scale(2.2)" fill="rgba(102, 62, 187, 1)"></use><use xlink:href="#SvgjsG1293" transform="translate(264, 0) scale(2.2)" fill="rgba(102, 62, 187, 1)"></use><use xlink:href="#SvgjsG1296" transform="translate(264, 52.800000000000004) scale(2.2)" fill="rgba(115, 123, 207, 1)"></use><use xlink:href="#SvgjsG1295" transform="translate(264, 105.60000000000001) scale(2.2)" fill="rgba(115, 123, 207, 1)"></use><use xlink:href="#SvgjsG1296" transform="translate(264, 158.4) scale(2.2)" fill="rgba(115, 123, 207, 1)"></use><use xlink:href="#SvgjsG1295" transform="translate(264, 211.20000000000002) scale(2.2)" fill="rgba(115, 123, 207, 1)"></use><use xlink:href="#SvgjsG1294" transform="translate(264, 264) scale(2.2)" fill="rgba(102, 62, 187, 1)"></use><use xlink:href="#SvgjsG1295" transform="translate(264, 316.8) scale(2.2)" fill="rgba(102, 62, 187, 1)"></use><use xlink:href="#SvgjsG1296" transform="translate(264, 369.6) scale(2.2)" fill="rgba(115, 123, 207, 1)"></use><use xlink:href="#SvgjsG1294" transform="translate(264, 422.40000000000003) scale(2.2)" fill="rgba(115, 123, 207, 1)"></use><use xlink:href="#SvgjsG1296" transform="translate(264, 475.20000000000005) scale(2.2)" fill="rgba(115, 123, 207, 1)"></use><use xlink:href="#SvgjsG1295" transform="translate(316.8, 0) scale(2.2)" fill="rgba(115, 123, 207, 1)"></use><use xlink:href="#SvgjsG1295" transform="translate(316.8, 52.800000000000004) scale(2.2)" fill="rgba(115, 123, 207, 1)"></use><use xlink:href="#SvgjsG1294" transform="translate(316.8, 105.60000000000001) scale(2.2)" fill="rgba(115, 123, 207, 1)"></use><use xlink:href="#SvgjsG1295" transform="translate(316.8, 158.4) scale(2.2)" fill="rgba(102, 62, 187, 1)"></use><use xlink:href="#SvgjsG1294" transform="translate(316.8, 211.20000000000002) scale(2.2)" fill="rgba(102, 62, 187, 1)"></use><use xlink:href="#SvgjsG1296" transform="translate(316.8, 264) scale(2.2)" fill="rgba(115, 123, 207, 1)"></use><use xlink:href="#SvgjsG1294" transform="translate(316.8, 316.8) scale(2.2)" fill="rgba(115, 123, 207, 1)"></use><use xlink:href="#SvgjsG1295" transform="translate(316.8, 369.6) scale(2.2)" fill="rgba(102, 62, 187, 1)"></use><use xlink:href="#SvgjsG1295" transform="translate(316.8, 422.40000000000003) scale(2.2)" fill="rgba(102, 62, 187, 1)"></use><use xlink:href="#SvgjsG1294" transform="translate(316.8, 475.20000000000005) scale(2.2)" fill="rgba(115, 123, 207, 1)"></use><use xlink:href="#SvgjsG1296" transform="translate(369.6, 0) scale(2.2)" fill="rgba(102, 62, 187, 1)"></use><use xlink:href="#SvgjsG1296" transform="translate(369.6, 52.800000000000004) scale(2.2)" fill="rgba(102, 62, 187, 1)"></use><use xlink:href="#SvgjsG1293" transform="translate(369.6, 105.60000000000001) scale(2.2)" fill="rgba(102, 62, 187, 1)"></use><use xlink:href="#SvgjsG1293" transform="translate(369.6, 158.4) scale(2.2)" fill="rgba(102, 62, 187, 1)"></use><use xlink:href="#SvgjsG1294" transform="translate(369.6, 211.20000000000002) scale(2.2)" fill="rgba(115, 123, 207, 1)"></use><use xlink:href="#SvgjsG1295" transform="translate(369.6, 264) scale(2.2)" fill="rgba(102, 62, 187, 1)"></use><use xlink:href="#SvgjsG1296" transform="translate(369.6, 316.8) scale(2.2)" fill="rgba(102, 62, 187, 1)"></use><use xlink:href="#SvgjsG1295" transform="translate(369.6, 369.6) scale(2.2)" fill="rgba(102, 62, 187, 1)"></use><use xlink:href="#SvgjsG1296" transform="translate(369.6, 422.40000000000003) scale(2.2)" fill="rgba(102, 62, 187, 1)"></use><use xlink:href="#SvgjsG1294" transform="translate(369.6, 475.20000000000005) scale(2.2)" fill="rgba(115, 123, 207, 1)"></use><use xlink:href="#SvgjsG1295" transform="translate(422.40000000000003, 0) scale(2.2)" fill="rgba(115, 123, 207, 1)"></use><use xlink:href="#SvgjsG1296" transform="translate(422.40000000000003, 52.800000000000004) scale(2.2)" fill="rgba(115, 123, 207, 1)"></use><use xlink:href="#SvgjsG1296" transform="translate(422.40000000000003, 105.60000000000001) scale(2.2)" fill="rgba(102, 62, 187, 1)"></use><use xlink:href="#SvgjsG1294" transform="translate(422.40000000000003, 158.4) scale(2.2)" fill="rgba(115, 123, 207, 1)"></use><use xlink:href="#SvgjsG1296" transform="translate(422.40000000000003, 211.20000000000002) scale(2.2)" fill="rgba(115, 123, 207, 1)"></use><use xlink:href="#SvgjsG1296" transform="translate(422.40000000000003, 264) scale(2.2)" fill="rgba(102, 62, 187, 1)"></use><use xlink:href="#SvgjsG1294" transform="translate(422.40000000000003, 316.8) scale(2.2)" fill="rgba(115, 123, 207, 1)"></use><use xlink:href="#SvgjsG1294" transform="translate(422.40000000000003, 369.6) scale(2.2)" fill="rgba(115, 123, 207, 1)"></use><use xlink:href="#SvgjsG1295" transform="translate(422.40000000000003, 422.40000000000003) scale(2.2)" fill="rgba(102, 62, 187, 1)"></use><use xlink:href="#SvgjsG1296" transform="translate(422.40000000000003, 475.20000000000005) scale(2.2)" fill="rgba(102, 62, 187, 1)"></use><use xlink:href="#SvgjsG1294" transform="translate(475.20000000000005, 0) scale(2.2)" fill="rgba(115, 123, 207, 1)"></use><use xlink:href="#SvgjsG1293" transform="translate(475.20000000000005, 52.800000000000004) scale(2.2)" fill="rgba(102, 62, 187, 1)"></use><use xlink:href="#SvgjsG1294" transform="translate(475.20000000000005, 105.60000000000001) scale(2.2)" fill="rgba(115, 123, 207, 1)"></use><use xlink:href="#SvgjsG1294" transform="translate(475.20000000000005, 158.4) scale(2.2)" fill="rgba(102, 62, 187, 1)"></use><use xlink:href="#SvgjsG1294" transform="translate(475.20000000000005, 211.20000000000002) scale(2.2)" fill="rgba(115, 123, 207, 1)"></use><use xlink:href="#SvgjsG1293" transform="translate(475.20000000000005, 264) scale(2.2)" fill="rgba(102, 62, 187, 1)"></use><use xlink:href="#SvgjsG1295" transform="translate(475.20000000000005, 316.8) scale(2.2)" fill="rgba(115, 123, 207, 1)"></use><use xlink:href="#SvgjsG1293" transform="translate(475.20000000000005, 369.6) scale(2.2)" fill="rgba(115, 123, 207, 1)"></use><use xlink:href="#SvgjsG1295" transform="translate(475.20000000000005, 422.40000000000003) scale(2.2)" fill="rgba(115, 123, 207, 1)"></use><use xlink:href="#SvgjsG1293" transform="translate(475.20000000000005, 475.20000000000005) scale(2.2)" fill="rgba(115, 123, 207, 1)"></use></g></defs></svg>